<svg width="17" height="17" viewBox="0 0 17 17" fill="none" xmlns="http://www.w3.org/2000/svg">
<g id="Component 2">
<path id="Vector" d="M2.47852 14.1673C2.19518 14.1673 1.94727 14.0611 1.73477 13.8486C1.52227 13.6361 1.41602 13.3882 1.41602 13.1048V3.89648C1.41602 3.61315 1.52227 3.36523 1.73477 3.15273C1.94727 2.94023 2.19518 2.83398 2.47852 2.83398H14.5202C14.8035 2.83398 15.0514 2.94023 15.2639 3.15273C15.4764 3.36523 15.5827 3.61315 15.5827 3.89648V13.1048C15.5827 13.3882 15.4764 13.6361 15.2639 13.8486C15.0514 14.0611 14.8035 14.1673 14.5202 14.1673H2.47852ZM8.49935 8.8194L14.5202 4.87044V3.89648L8.49935 7.7569L2.47852 3.89648V4.87044L8.49935 8.8194Z" fill="#F1F3F4"/>
</g>
</svg>
