<svg width="15" height="20" viewBox="0 0 15 20" fill="none" xmlns="http://www.w3.org/2000/svg">
<g id="Component 2">
<path id="Vector" d="M14.85 13.0791C14.85 13.2689 14.8148 13.5168 14.7445 13.8227C14.6742 14.1286 14.6004 14.3694 14.523 14.5452C14.3754 14.8968 13.9465 15.2695 13.2363 15.6633C12.5754 16.022 11.9215 16.2013 11.2746 16.2013C11.0848 16.2013 10.9002 16.189 10.7209 16.1644C10.5416 16.1397 10.3395 16.0958 10.1145 16.0325C9.88945 15.9692 9.72246 15.9182 9.61348 15.8796C9.50449 15.8409 9.30937 15.7688 9.02812 15.6633C8.74687 15.5578 8.57461 15.4946 8.51133 15.4735C7.82227 15.2273 7.20703 14.9355 6.66563 14.598C5.76562 14.0424 4.83574 13.2847 3.87598 12.3249C2.91621 11.365 2.15859 10.435 1.60312 9.5349C1.26562 8.99344 0.973828 8.37813 0.727734 7.68899C0.706641 7.6257 0.643359 7.45342 0.537891 7.17214C0.432422 6.89086 0.360352 6.69572 0.32168 6.58672C0.283008 6.47772 0.232031 6.31071 0.16875 6.08569C0.105469 5.86066 0.0615234 5.65849 0.0369141 5.47917C0.0123047 5.29986 0 5.11527 0 4.9254C0 4.27845 0.179297 3.62447 0.537891 2.96346C0.931641 2.25323 1.3043 1.82427 1.65586 1.6766C1.83164 1.59925 2.07246 1.52541 2.37832 1.45509C2.68418 1.38477 2.93203 1.34961 3.12188 1.34961C3.22031 1.34961 3.29414 1.36016 3.34336 1.38125C3.46992 1.42345 3.65625 1.69066 3.90234 2.18291C3.97969 2.31651 4.08516 2.50638 4.21875 2.7525C4.35234 2.99862 4.47539 3.22189 4.58789 3.4223C4.70039 3.62272 4.80938 3.81082 4.91484 3.98662C4.93594 4.01475 4.99746 4.10265 5.09941 4.25033C5.20137 4.398 5.27695 4.52282 5.32617 4.62478C5.37539 4.72675 5.4 4.82695 5.4 4.9254C5.4 5.06604 5.2998 5.24184 5.09941 5.4528C4.89902 5.66377 4.68105 5.85715 4.44551 6.03295C4.20996 6.20875 3.99199 6.3951 3.7916 6.592C3.59121 6.78889 3.49102 6.95063 3.49102 7.07721C3.49102 7.14049 3.50859 7.2196 3.54375 7.31454C3.57891 7.40947 3.60879 7.48155 3.6334 7.53077C3.65801 7.58 3.70723 7.66438 3.78105 7.78393C3.85488 7.90347 3.89531 7.97027 3.90234 7.98434C4.43672 8.94773 5.04844 9.77399 5.7375 10.4631C6.42656 11.1523 7.25273 11.7641 8.21602 12.2985C8.23008 12.3055 8.29688 12.346 8.41641 12.4198C8.53594 12.4936 8.62031 12.5429 8.66953 12.5675C8.71875 12.5921 8.79082 12.622 8.88574 12.6571C8.98066 12.6923 9.05977 12.7099 9.12305 12.7099C9.24961 12.7099 9.41133 12.6097 9.6082 12.4093C9.80508 12.2088 9.99141 11.9908 10.1672 11.7553C10.343 11.5197 10.5363 11.3017 10.7473 11.1013C10.9582 10.9009 11.134 10.8007 11.2746 10.8007C11.373 10.8007 11.4732 10.8253 11.5752 10.8745C11.6771 10.9237 11.802 10.9993 11.9496 11.1013C12.0973 11.2033 12.1852 11.2648 12.2133 11.2859C12.3891 11.3914 12.5771 11.5004 12.7775 11.6129C12.9779 11.7254 13.2012 11.8484 13.4473 11.9821C13.6934 12.1157 13.8832 12.2211 14.0168 12.2985C14.509 12.5446 14.7762 12.731 14.8184 12.8575C14.8395 12.9068 14.85 12.9806 14.85 13.0791Z" fill="#F1F3F4"/>
</g>
</svg>
