<svg width="15" height="17" viewBox="0 0 15 17" fill="none" xmlns="http://www.w3.org/2000/svg">
<g id="shape_OnfULxbsJH" clip-path="url(#clip0_0_77)">
<path id="Vector" d="M14.9147 5.80133C14.9147 5.93283 14.8371 6.07628 14.6817 6.23169L11.4281 9.40558L12.1989 13.8885C12.2049 13.9303 12.2079 13.9901 12.2079 14.0678C12.2079 14.1933 12.1765 14.2994 12.1137 14.3861C12.051 14.4728 11.9599 14.5161 11.8404 14.5161C11.7268 14.5161 11.6073 14.4802 11.4818 14.4085L7.45737 12.2926L3.4329 14.4085C3.30144 14.4802 3.18193 14.5161 3.07437 14.5161C2.94889 14.5161 2.85478 14.4728 2.79203 14.3861C2.72929 14.2994 2.69792 14.1933 2.69792 14.0678C2.69792 14.0319 2.70389 13.9722 2.71585 13.8885L3.48668 9.40558L0.22408 6.23169C0.0746932 6.07031 0 5.92685 0 5.80133C0 5.58018 0.167313 5.4427 0.501938 5.3889L5.00146 4.7344L7.01818 0.65496C7.13171 0.409895 7.27811 0.287362 7.45737 0.287362C7.63664 0.287362 7.78303 0.409895 7.89657 0.65496L9.91328 4.7344L14.4128 5.3889C14.7474 5.4427 14.9147 5.58018 14.9147 5.80133Z" fill="#FFE401"/>
</g>
<defs>
<clipPath id="clip0_0_77">
<rect width="14.04" height="16.0028" fill="white" transform="scale(1.06231)"/>
</clipPath>
</defs>
</svg>
