<svg width="46" height="46" viewBox="0 0 46 46" fill="none" xmlns="http://www.w3.org/2000/svg">
<g id="Group">
<path id="Vector" d="M21.7189 29.9964C21.3917 30.3493 21.0838 30.7021 20.7534 31.0293C19.3195 32.4567 17.8825 33.8777 16.439 35.2955C16.2787 35.4527 16.2434 35.5938 16.2947 35.8055C17.4463 40.3605 14.5465 44.909 9.94346 45.759C8.42622 46.0381 6.94427 45.9002 5.50722 45.3324C4.93304 45.1046 4.85606 44.7326 5.29551 44.2995C6.96031 42.654 8.6251 41.0052 10.2963 39.3629C10.4086 39.2538 10.5529 39.1768 10.7069 39.071C9.47835 37.8745 8.3332 36.7614 7.12069 35.581C6.54972 36.1776 6.00121 36.7711 5.43024 37.342C4.21773 38.5545 2.9988 39.7542 1.77988 40.9603C1.3693 41.3645 0.997205 41.2811 0.788704 40.7422C-1.0461 36.0108 1.87611 30.7919 6.87691 29.8585C8.083 29.6339 9.28268 29.6789 10.4759 29.9547C10.5914 29.9804 10.7743 29.9387 10.8577 29.8585C13.1576 27.6195 15.4511 25.3709 17.7414 23.1255C17.7574 23.1095 17.7638 23.087 17.7863 23.0518C17.4013 22.6604 17.0164 22.2595 16.6251 21.8681C16.2273 21.4672 16.2305 21.2683 16.6251 20.8641C16.9459 20.5369 17.2474 20.1969 17.5938 19.8248C12.8464 15.1256 8.05413 10.3846 3.26504 5.64682C2.71011 6.04457 2.65558 5.99966 2.14235 5.57304C1.34364 4.90905 0.872104 4.10071 0.679643 3.07425C0.535297 2.3044 0.26585 1.55701 0.050935 0.799993C-0.0132188 0.565831 -0.0517112 0.33167 0.156789 0.136C0.352458 -0.0468381 0.567374 -0.0147611 0.79512 0.0558081C1.94347 0.399031 3.09183 0.735839 4.23377 1.08869C4.40057 1.14001 4.55774 1.25228 4.68926 1.37096C5.01003 1.66286 5.30834 1.98042 5.61628 2.28515C5.98517 2.64762 5.99479 2.8465 5.64194 3.2635C10.4374 8.00768 15.2329 12.7551 20.0541 17.5249C20.423 17.1689 20.7758 16.8192 21.1383 16.476C21.4783 16.152 21.7125 16.152 22.0461 16.492C22.4214 16.8737 22.7839 17.2683 23.2393 17.7462C23.4029 17.5377 23.5056 17.3709 23.6403 17.2394C25.6515 15.2603 27.666 13.2843 29.69 11.318C29.9081 11.1063 29.9723 10.9299 29.9017 10.6187C29.2089 7.53615 29.9819 4.85452 32.2947 2.70536C34.0268 1.09831 36.1503 0.434316 38.508 0.662062C39.2586 0.735839 40.0028 0.941131 40.7341 1.14322C41.366 1.31964 41.427 1.72702 40.9522 2.19534C39.2297 3.89862 37.5072 5.60191 35.7846 7.30199C35.7461 7.34048 35.6852 7.35972 35.5858 7.41105C36.7919 8.58506 37.9434 9.70134 39.1174 10.8401C39.5408 10.4134 39.9482 9.99966 40.3588 9.58907C41.706 8.23863 43.0533 6.88819 44.4037 5.53776C44.8496 5.09189 45.1992 5.16246 45.4334 5.74626C47.2682 10.3621 44.4775 15.5426 39.6018 16.5658C38.3283 16.832 37.0677 16.8224 35.8039 16.5049C35.6435 16.4632 35.5088 16.4279 35.3484 16.5883C33.7093 18.2274 32.0573 19.8537 30.4085 21.4864C30.3861 21.5089 30.3668 21.5377 30.2931 21.6308C30.4663 21.7815 30.6523 21.9323 30.8191 22.0959C34.6042 25.836 38.3893 29.5826 42.1776 33.3228C44.0669 35.1897 44.6186 37.7719 43.5023 40.1744C42.4887 42.3557 40.7084 43.5233 38.2995 43.6516C36.5288 43.7478 35.0116 43.1191 33.7542 41.8745C29.8568 38.0189 25.9595 34.16 22.0621 30.3044C21.9691 30.221 21.8761 30.1408 21.7189 29.9964ZM39.6884 1.90023C37.2313 1.12397 33.6451 1.96118 31.8488 4.77753C29.9691 7.7254 30.3284 11.1159 32.7277 13.6211C35.1271 16.1231 38.8512 16.399 41.7253 14.6059C44.4839 12.8834 45.5521 9.42869 44.6667 6.74706C44.5769 6.83046 44.4935 6.90103 44.4165 6.97801C42.8095 8.58506 41.2056 10.1953 39.5986 11.8024C39.2393 12.1616 39.0084 12.1648 38.6395 11.8088C37.3019 10.5129 35.9675 9.21698 34.6331 7.91786C34.2963 7.59068 34.2931 7.34689 34.6267 7.0165C35.3805 6.26911 36.1439 5.52813 36.8881 4.77432C37.8279 3.82164 38.7518 2.85933 39.6884 1.90023ZM6.63954 44.6075C8.96832 45.3933 12.5192 44.5337 14.3701 41.6885C16.1792 38.9042 15.8167 35.1063 13.488 32.8031C11.0726 30.4166 7.18484 30.0509 4.39094 31.9531C1.50723 33.9162 0.775874 37.31 1.59063 39.7991C1.69327 39.6548 1.75422 39.5425 1.84083 39.4559C3.4543 37.8553 5.06777 36.2578 6.68444 34.6604C7.06295 34.2883 7.26504 34.2851 7.64034 34.6476C8.96832 35.9371 10.2931 37.2266 11.6179 38.5193C12.0092 38.901 11.9996 39.0966 11.6147 39.4912C9.94667 41.2041 8.28508 42.917 6.63954 44.6075ZM24.6283 22.7663C24.0316 23.4014 23.4414 24.0301 22.8288 24.6845C22.909 24.755 23.0341 24.8577 23.1495 24.97C27.342 29.1592 31.5312 33.3517 35.7237 37.5409C37.1768 38.994 38.6299 40.4471 40.0894 41.897C40.1728 41.9804 40.3492 42.083 40.4165 42.0477C41.1768 41.65 41.7926 41.095 42.2417 40.3765C36.3652 34.5032 30.5176 28.6588 24.6283 22.7663ZM25.5104 22.0189C31.249 27.7574 37.0068 33.5185 42.7967 39.3083C42.8704 38.8849 42.9859 38.4551 43.0116 38.0156C43.1046 36.415 42.5208 35.0902 41.3789 33.9675C37.5425 30.1953 33.7221 26.4102 29.9049 22.6187C29.0645 21.7815 28.2626 20.9058 27.4286 20.0333C26.7133 20.7743 26.0878 21.419 25.5104 22.0189ZM39.1591 42.5321C33.4238 36.7967 27.7141 31.0838 21.9755 25.3421C21.4302 25.913 20.8657 26.5032 20.3588 27.0357C21.3725 28.0878 22.3797 29.1752 23.4318 30.2177C27.0918 33.8585 30.7678 37.48 34.4342 41.1143C35.759 42.4294 37.3436 42.8593 39.1591 42.5321ZM2.65879 4.61394C2.92503 4.53375 3.14315 4.40223 3.33561 4.42789C3.51204 4.45035 3.68525 4.62356 3.82639 4.7647C8.27225 9.15603 12.7117 13.5506 17.1511 17.9451C17.5553 18.3461 17.9306 18.7727 18.3348 19.2057C18.6973 18.8369 18.9892 18.5353 19.2939 18.2242C19.2522 18.1761 19.2105 18.1215 19.1624 18.0766C14.3476 13.3132 9.52967 8.54978 4.71813 3.78315C4.57057 3.63559 4.41019 3.44634 4.37811 3.25709C4.35245 3.09029 4.50001 2.89782 4.59944 2.64442C4.31396 2.43912 4.02206 2.15364 3.67563 1.99325C3.26504 1.804 2.80634 1.72381 2.3701 1.5955C2.01084 1.48644 1.64837 1.38379 1.2474 1.26832C1.43987 1.95476 1.65478 2.57064 1.77667 3.20576C1.89536 3.83126 2.2065 4.29317 2.65879 4.61394ZM18.5401 23.7799C16.2947 25.9804 14.0557 28.1744 11.7847 30.3974C13.6163 31.2763 14.9731 32.5914 15.8552 34.4487C17.5649 32.6845 19.2458 30.9555 20.9106 29.2394C20.4005 28.7165 19.8199 28.1199 19.2394 27.5265C18.9186 27.1993 18.9186 26.9427 19.2361 26.6187C19.5922 26.253 19.945 25.8842 20.2562 25.5634C19.6948 24.9796 19.1271 24.3894 18.5401 23.7799ZM30.3893 12.0558C28.2273 14.1761 26.0942 16.2643 24.0124 18.3044C24.6187 18.9395 25.2025 19.5554 25.86 20.245C26.2129 19.8601 26.5465 19.4816 26.8961 19.1255C27.2297 18.7823 27.4831 18.7919 27.8328 19.1288C28.0765 19.3693 28.3171 19.6131 28.5609 19.8537C28.8977 20.1873 29.2377 20.5177 29.6162 20.8898C31.2137 19.2442 32.7822 17.6276 34.354 16.0109C32.5962 15.1897 31.2618 13.881 30.3893 12.0558ZM21.5713 17.4832C20.2305 18.7952 18.9154 20.0814 17.6868 21.2843C18.8288 22.4776 19.9483 23.642 21.0774 24.8192C22.4182 23.504 23.7365 22.2178 24.994 20.986C23.8937 19.8505 22.8256 18.747 21.7542 17.6404C21.7029 17.5923 21.6483 17.5506 21.5713 17.4832Z" fill="#BF6401"/>
</g>
</svg>
