<svg width="46" height="54" viewBox="0 0 46 54" fill="none" xmlns="http://www.w3.org/2000/svg">
<g id="Group">
<path id="Vector" d="M9.69789 26.6443C9.70053 19.298 15.6172 13.3548 22.9504 13.3363C30.3681 13.3179 36.3297 19.2821 36.3138 26.7051C36.298 34.0303 30.3258 39.9734 23.0032 39.9549C15.6172 39.9364 9.69525 34.0118 9.69789 26.6443ZM23.0111 15.7517C16.9253 15.7754 12.0947 20.651 12.1106 26.7527C12.1264 32.6905 17.0548 37.5502 23.0561 37.5423C29.0124 37.5343 33.9197 32.606 33.9038 26.6496C33.8853 20.6246 28.9939 15.7279 23.0111 15.7517Z" fill="#BF6401"/>
<path id="Vector_2" d="M22.913 47.0581C22.3449 46.5164 21.7688 45.9826 21.2191 45.425C21.0262 45.2294 20.8439 44.9863 20.754 44.7326C20.5744 44.2305 20.799 43.6756 21.2297 43.3902C21.6578 43.1075 22.2445 43.1286 22.6567 43.4721C22.9025 43.6782 23.1218 43.9161 23.3464 44.1433C24.4008 45.203 25.4578 46.26 26.5016 47.3276C27.0909 47.9301 27.1068 48.5908 26.5281 49.1774C25.3046 50.4142 24.0705 51.6403 22.8258 52.8559C22.255 53.4135 21.5574 53.4293 21.0553 52.9378C20.5479 52.441 20.577 51.7064 21.1399 51.1276C21.5865 50.6705 22.0489 50.2265 22.5933 49.6874C21.7397 49.6108 21.0025 49.558 20.2678 49.4734C10.8286 48.4084 2.79251 41.3924 0.686384 32.0853C-1.36425 23.0239 1.19904 15.3288 8.11993 9.10552C8.23356 9.00511 8.34983 8.90997 8.46875 8.81484C9.14524 8.28104 9.86402 8.30483 10.3238 8.87826C10.7704 9.43585 10.6383 10.1018 10.0279 10.6726C9.11882 11.5261 8.17807 12.3559 7.35887 13.2914C-0.172451 21.9299 1.09862 35.518 10.0754 42.6503C13.6376 45.4805 17.6807 47.0105 22.226 47.2034C22.4242 47.2114 22.625 47.2034 22.8232 47.2034C22.8522 47.1559 22.884 47.1083 22.913 47.0581Z" fill="#BF6401"/>
<path id="Vector_3" d="M23.0788 6.2567C23.7051 6.84599 24.3498 7.42207 24.955 8.0325C25.3699 8.45003 25.428 9.03404 25.1585 9.49384C24.8784 9.97215 24.437 10.1756 23.9085 10.062C23.6496 10.0065 23.3774 9.8453 23.1871 9.65768C21.9477 8.43682 20.7242 7.20009 19.506 5.95809C18.9035 5.34237 18.9114 4.68701 19.5272 4.06865C20.7269 2.861 21.9345 1.66127 23.1501 0.469472C23.75 -0.119821 24.4423 -0.151532 24.9629 0.358484C25.465 0.852644 25.4333 1.58992 24.8678 2.17129C24.4212 2.62845 23.9614 3.0724 23.4223 3.6062C24.2574 3.68019 24.9814 3.72512 25.6975 3.81232C35.8873 5.06226 44.0475 12.694 45.6542 22.7675C47.0363 31.4245 44.2589 38.6678 37.6208 44.4127C37.5785 44.4497 37.5336 44.4867 37.4887 44.5211C36.8465 45.0152 36.1225 44.9703 35.6759 44.4075C35.2425 43.8578 35.3667 43.2024 35.9401 42.6501C36.9602 41.6671 38.0489 40.7369 38.9368 39.6429C48.8729 27.4131 42.0048 9.07632 26.4824 6.36504C25.3989 6.17478 24.2917 6.1325 23.195 6.02151C23.158 6.09814 23.1184 6.17742 23.0788 6.2567Z" fill="#BF6401"/>
<path id="Vector_4" d="M24.2204 32.7982C24.2204 33.1285 24.2416 33.5064 24.2151 33.8817C24.1649 34.6242 23.6576 35.1105 22.9811 35.0972C22.3283 35.084 21.7523 34.5978 21.8157 33.8949C21.8976 32.9964 21.5937 32.5762 20.7217 32.386C20.2619 32.2855 19.839 31.9658 19.4321 31.6963C18.7556 31.247 18.5865 30.5177 18.9776 29.9416C19.3766 29.3523 20.0901 29.2413 20.7692 29.6958C21.5303 30.2058 22.3442 30.5547 23.2691 30.3829C23.6787 30.3063 24.1068 30.1266 24.4424 29.8808C24.9788 29.4844 24.9418 28.9586 24.3975 28.5754C24.1385 28.393 23.8399 28.2609 23.5466 28.1341C22.6454 27.7456 21.7179 27.4127 20.8432 26.9766C19.5299 26.3213 18.679 25.3092 18.7926 23.7474C18.9036 22.2385 19.8417 21.3004 21.163 20.7745C21.7047 20.5578 21.858 20.2962 21.7866 19.7862C21.7734 19.6937 21.7813 19.5986 21.7866 19.5034C21.8236 18.716 22.294 18.2007 22.9837 18.1874C23.6945 18.1742 24.1914 18.7054 24.2231 19.5193C24.2336 19.8206 24.2257 20.1218 24.2257 20.3253C25.066 20.7481 25.8588 21.089 26.5934 21.5329C27.2884 21.9531 27.4311 22.7036 27.0295 23.285C26.6172 23.8822 25.9354 23.9773 25.2325 23.5122C24.3658 22.9388 23.4541 22.5952 22.3997 22.8806C22.2913 22.9097 22.1566 22.9229 22.0826 22.9943C21.776 23.2982 21.2977 23.6021 21.2555 23.9482C21.2237 24.2231 21.6836 24.6617 22.0218 24.8494C22.6772 25.2114 23.4092 25.4387 24.0989 25.7425C24.6168 25.9698 25.148 26.1865 25.621 26.4878C27.6822 27.7905 27.8011 30.3697 25.8615 31.8548C25.3937 32.2168 24.8282 32.4547 24.2204 32.7982Z" fill="#BF6401"/>
</g>
</svg>
