<svg width="28" height="26" viewBox="0 0 28 26" fill="none" xmlns="http://www.w3.org/2000/svg">
<g id="Group">
<path id="Vector" d="M21.8397 0.000461491C23.9144 0.136377 25.6047 1.5096 26.6249 3.69518C27.556 5.69018 27.0264 7.88982 25.3766 9.55518C23.8238 11.1221 22.274 12.6906 20.6805 14.2169C20.4368 14.4497 19.9494 14.5794 19.6166 14.5185C19.3651 14.4731 19.0183 14.0545 19.0105 13.792C18.9995 13.4483 19.1995 13.0171 19.4495 12.7578C20.9102 11.2424 22.4146 9.76921 23.9003 8.27726C25.4876 6.68221 25.5235 4.76845 24.0019 3.23588C22.3053 1.52678 20.4462 1.46898 18.8011 3.0984C16.8061 5.07465 14.8221 7.05871 12.8443 9.05058C11.6741 10.2285 11.6929 11.5674 12.8693 12.7578C13.3629 13.2562 13.8722 13.7405 14.3565 14.2466C14.8361 14.7481 14.8596 15.3027 14.4503 15.7089C14.0488 16.1073 13.4785 16.0854 12.9833 15.612C12.3678 15.0231 11.7554 14.4278 11.1805 13.8014C9.64947 12.1298 9.65103 9.55674 11.2336 7.932C13.3676 5.74173 15.5376 3.58739 17.7169 1.44242C18.7261 0.445703 19.9775 -0.0167233 21.8397 0.000461491Z" fill="#D87101"/>
<path id="Vector_2" d="M6.87131 25.8867C4.67323 25.8867 2.41734 24.3229 1.5456 22.1951C0.705112 20.147 1.17066 17.9848 2.82352 16.3226C4.37952 14.7572 5.94021 13.195 7.51184 11.6452C7.99457 11.1687 8.60385 11.1453 8.96785 11.578C9.39591 12.0873 9.31311 12.5888 8.84756 13.0434C8.68665 13.2012 8.53042 13.3637 8.37107 13.5246C6.93537 14.9619 5.48404 16.3851 4.06551 17.8395C2.92819 19.005 2.77353 20.6719 3.62808 21.9826C4.69666 23.6199 6.3792 24.34 7.93364 23.7558C8.41169 23.5761 8.8788 23.2699 9.24437 22.9137C11.3237 20.8781 13.3781 18.8175 15.4262 16.7506C16.4588 15.7102 16.4588 14.3229 15.4449 13.259C14.9435 12.7325 14.4139 12.2326 13.9046 11.7124C13.3562 11.15 13.3 10.6438 13.7187 10.197C14.1342 9.75332 14.7232 9.808 15.2918 10.3595C15.8308 10.8844 16.3682 11.4124 16.8885 11.9561C18.5429 13.6839 18.5788 16.2913 16.915 17.9989C14.8138 20.1548 12.6751 22.2732 10.5348 24.39C9.51776 25.3961 8.25078 25.8867 6.87131 25.8867Z" fill="#D87101"/>
<path id="Vector_3" d="M26.8683 17.4631C25.3155 17.2022 23.7079 16.9585 22.1128 16.6476C21.5911 16.5461 21.3177 16.1118 21.4192 15.5634C21.5192 15.0229 21.9004 14.7011 22.4425 14.7792C24.0516 15.012 25.656 15.2775 27.2542 15.5744C27.7869 15.6728 28.065 16.0868 27.9869 16.6351C27.9025 17.2241 27.5042 17.4788 26.8683 17.4631Z" fill="#D87101"/>
<path id="Vector_4" d="M8.64523 0.659924C8.79833 0.825522 9.19202 1.0708 9.31231 1.41137C9.82785 2.87363 10.27 4.36246 10.7246 5.84503C10.8996 6.41525 10.6871 6.86206 10.1341 7.04328C9.5529 7.23387 9.08735 7.00891 8.89206 6.40432C8.4062 4.90456 7.91878 3.4048 7.47198 1.8941C7.27982 1.24108 7.76412 0.648988 8.64523 0.659924Z" fill="#D87101"/>
<path id="Vector_5" d="M20.6851 24.4251C20.4335 24.6845 20.2055 25.0703 19.8711 25.2219C19.4165 25.4281 18.9229 25.2188 18.7573 24.7345C18.2152 23.1472 17.7074 21.5475 17.2403 19.9368C17.0981 19.4478 17.3872 18.9729 17.8777 18.9104C18.2276 18.8666 18.8588 19.0494 18.951 19.2885C19.5727 20.9226 20.0836 22.5989 20.6851 24.4251Z" fill="#D87101"/>
<path id="Vector_6" d="M5.30861 11.1468C3.90728 10.9094 2.32472 10.6625 0.75153 10.3657C0.17506 10.2563 -0.0889605 9.81578 0.026646 9.23931C0.136004 8.70189 0.539064 8.40038 1.07023 8.47849C2.65279 8.71283 4.23222 8.9831 5.80541 9.27524C6.37251 9.37991 6.67871 9.79078 6.58341 10.3735C6.48655 10.9593 6.07099 11.1999 5.30861 11.1468Z" fill="#D87101"/>
<path id="Vector_7" d="M5.60451 4.99971C5.95289 5.21843 6.23097 5.33716 6.43719 5.53244C7.01834 6.07767 7.58075 6.64633 8.13223 7.22123C8.60246 7.71178 8.62746 8.27732 8.23065 8.6835C7.82134 9.10218 7.28236 9.08656 6.77776 8.60226C6.16535 8.01642 5.53108 7.44307 4.99992 6.78849C4.79214 6.53384 4.7109 6.03392 4.80776 5.71679C4.89368 5.43402 5.30455 5.2528 5.60451 4.99971Z" fill="#D87101"/>
<path id="Vector_8" d="M20.3883 16.8816C20.7023 17.0379 20.9601 17.1019 21.1303 17.2613C21.7865 17.8799 22.4301 18.5142 23.0472 19.1735C23.4472 19.6015 23.4534 20.103 23.03 20.517C22.6114 20.9263 22.1067 20.9185 21.6818 20.5217C21.0225 19.9062 20.3555 19.2891 19.7868 18.5939C19.5822 18.3439 19.54 17.8331 19.6384 17.5065C19.7165 17.2472 20.1227 17.0894 20.3883 16.8816Z" fill="#D87101"/>
</g>
</svg>
