<svg width="44" height="50" viewBox="0 0 44 50" fill="none" xmlns="http://www.w3.org/2000/svg">
<g id="Group">
<path id="Vector" d="M8.63614 42.4344C6.57273 42.997 4.65671 43.5668 2.71368 44.0164C2.11185 44.1564 1.43387 43.9722 0.790289 43.9378C0.932762 43.3433 0.952414 42.6801 1.23736 42.1642C2.55892 39.7717 3.95172 37.4184 5.37154 34.9595C3.38183 33.7116 3.27374 31.8251 3.68151 29.8599C4.11139 27.7892 3.68397 26.077 2.0529 24.6769C1.59354 24.2814 1.21034 23.7827 0.8517 23.2865C-0.312649 21.6727 -0.283172 20.1448 0.940131 18.5554C1.33807 18.0371 1.75321 17.5164 2.24204 17.089C3.68642 15.8288 4.10893 14.2788 3.71099 12.4512C3.64221 12.1319 3.59554 11.8052 3.56852 11.4809C3.31059 8.41037 4.28088 7.10601 7.29247 6.47225C7.93114 6.33714 8.5649 6.17011 9.21094 6.07185C10.3606 5.89499 11.122 5.24157 11.6747 4.25163C12.1906 3.32556 12.7114 2.39211 13.323 1.52745C14.2908 0.159214 15.6001 -0.300139 17.1943 0.191148C18.1646 0.490833 19.1079 0.908426 20.0242 1.3555C21.299 1.97697 22.5248 1.9868 23.7825 1.32602C24.431 0.984576 25.109 0.687347 25.7968 0.429422C28.0985 -0.440155 29.5085 0.0216542 30.83 2.06541C31.228 2.68197 31.6185 3.31327 31.9329 3.97651C32.5495 5.27351 33.5567 5.9564 34.9568 6.19467C35.959 6.36416 36.9637 6.59261 37.9242 6.92177C39.4398 7.44499 40.2455 8.56513 40.2062 10.1888C40.1817 11.25 40.0981 12.3136 39.9557 13.365C39.7886 14.5981 40.1448 15.6028 40.9849 16.4994C41.6825 17.2437 42.3826 17.9978 42.9869 18.8183C44.0235 20.2258 44.0579 21.712 43.0213 23.1391C42.4956 23.8613 41.911 24.5614 41.26 25.1731C39.9925 26.3644 39.7026 27.7867 40.0318 29.4227C40.1202 29.8624 40.1546 30.3119 40.1964 30.7615C40.3585 32.4466 40.0736 33.9573 38.3663 34.9497C39.7346 37.2956 41.1028 39.5604 42.3802 41.8768C42.7241 42.5008 42.8027 43.2721 43.0016 43.9746C42.2721 43.9795 41.5106 44.1195 40.8179 43.9599C38.9583 43.5325 37.1283 42.9773 35.1632 42.4369C34.5982 44.5764 34.1093 46.5932 33.5173 48.5804C33.3626 49.1012 32.8934 49.5311 32.5692 50.0002C32.1442 49.6195 31.6013 49.31 31.3164 48.8433C30.0833 46.8192 28.9238 44.7484 27.7349 42.6973C27.6121 42.4885 27.4991 42.1691 27.3173 42.1151C24.5858 41.2897 22.0384 38.9045 18.9237 41.1178C18.4054 41.4862 17.7004 41.5771 17.1256 41.8768C16.7252 42.0856 16.2756 42.3607 16.0546 42.7292C14.8116 44.7926 13.6546 46.9125 12.4043 48.971C12.1464 49.396 11.6109 49.6539 11.2031 49.988C10.8936 49.5507 10.4441 49.1552 10.3016 48.6713C9.70223 46.6349 9.20112 44.5814 8.63614 42.4344ZM5.23643 30.5723C5.17257 32.8273 5.50418 33.2842 7.15736 33.7264C7.63146 33.8541 8.11046 33.9843 8.59438 34.0334C10.9108 34.2742 12.4461 35.4778 13.5441 37.5461C15.2808 40.8181 15.5387 40.8795 18.85 39.2681C20.8839 38.2781 22.7582 38.2143 24.8142 39.246C28.1132 40.8992 28.4203 40.8107 30.1422 37.6051C31.2673 35.5122 32.8369 34.3773 35.1804 33.9966C38.612 33.4414 38.8822 33.0386 38.3492 29.6217C37.993 27.3347 38.5309 25.4949 40.1841 23.8269C42.7609 21.2256 42.783 20.9087 40.2283 18.2435C38.5358 16.4798 37.9979 14.5834 38.3614 12.2129C38.8552 9.00974 38.5997 8.75182 35.4874 8.06647C35.0502 7.97067 34.6178 7.84048 34.1757 7.75942C32.5839 7.46219 31.4097 6.61963 30.6458 5.18016C30.2257 4.38674 29.7418 3.62524 29.2825 2.85147C28.6389 1.77309 27.7546 1.42919 26.5804 1.96961C26.2095 2.14156 25.8115 2.26438 25.4602 2.46581C23.048 3.85123 20.6972 3.78737 18.2334 2.47563C15.7672 1.16881 15.0843 1.38006 13.8929 3.85615C12.6843 6.36908 10.8789 7.86259 8.07607 8.09841C7.79112 8.12297 7.50863 8.18438 7.23106 8.24825C5.54349 8.63882 4.93184 9.21854 5.27082 10.9037C5.95862 14.3206 5.1087 17.0472 2.48523 19.3734C1.26684 20.4543 1.25701 21.4639 2.42382 22.5742C4.93675 24.9594 6.36148 27.5951 5.23643 30.5723ZM3.18531 42.1126C5.03746 41.6312 6.56782 41.2357 8.10063 40.8353C9.73171 40.4103 9.81031 40.4496 10.277 42.1421C10.6922 43.6479 11.0852 45.1586 11.5691 46.969C12.6794 45.0407 13.6276 43.3974 14.4161 42.0267C13.4188 40.4791 12.5198 39.1354 11.6747 37.7574C10.8666 36.4383 8.75405 35.3059 7.31949 35.5294C7.12052 35.5613 6.88716 35.7505 6.77907 35.9323C5.61964 37.8949 4.48231 39.8724 3.18531 42.1126ZM32.1639 46.9715C32.6723 45.0505 33.1317 43.4612 33.5026 41.8523C33.7654 40.7149 34.3108 40.4128 35.4383 40.7714C37.0202 41.275 38.6464 41.6361 40.5206 42.1298C39.2163 39.8822 38.047 37.8507 36.8532 35.8291C36.7697 35.6866 36.5363 35.5712 36.3594 35.549C34.8537 35.3501 32.8517 36.4555 32.0312 37.8114C31.196 39.1919 30.2773 40.5233 29.2898 42.0365C30.098 43.4195 31.0486 45.0554 32.1639 46.9715Z" fill="#BF6401"/>
<path id="Vector_2" d="M8.42278 20.9969C8.354 13.7209 14.3624 7.6388 21.7072 7.54546C29.0445 7.45457 35.2249 13.4262 35.2962 20.68C35.3698 28.2851 29.4769 34.3722 21.9602 34.4581C14.5589 34.5417 8.49402 28.5087 8.42278 20.9969ZM10.1595 20.9306C10.1349 27.4303 15.3032 32.6748 21.7833 32.7264C28.2929 32.7779 33.5693 27.5187 33.5742 20.9748C33.5791 14.4996 28.3616 9.25268 21.8889 9.21829C15.4457 9.18635 10.184 14.4431 10.1595 20.9306Z" fill="#BF6401"/>
<path id="Vector_3" d="M20.0568 24.6131C22.8718 21.7341 25.5518 18.9927 28.2342 16.2538C28.4332 16.0499 28.6199 15.7355 28.8582 15.6864C29.2094 15.6151 29.6909 15.6151 29.9415 15.8092C30.1232 15.9517 30.1183 16.4896 30.0201 16.7918C29.9292 17.0718 29.6025 17.2782 29.374 17.5091C26.6302 20.2603 23.8888 23.009 21.1474 25.7578C20.1403 26.7698 19.8897 26.7674 18.8556 25.7357C17.2957 24.1734 15.7408 22.6111 14.1736 21.0586C13.7167 20.6066 13.2205 20.1325 13.8101 19.5111C14.4168 18.8748 14.9302 19.3833 15.365 19.8255C16.8831 21.3534 18.3839 22.9009 20.0568 24.6131Z" fill="#BF6401"/>
</g>
</svg>
