<svg width="46" height="46" viewBox="0 0 46 46" fill="none" xmlns="http://www.w3.org/2000/svg">
<g id="Group">
<path id="Vector" d="M6.78568 28.4474C9.04407 26.189 11.2186 24.0447 13.3528 21.8635C14.2555 20.9407 15.2957 20.5078 16.5877 20.5212C20.0508 20.5481 23.5138 20.5279 26.9769 20.5313C29.5574 20.5313 31.2118 22.0011 31.534 24.632C31.6783 24.5179 31.8058 24.434 31.9098 24.3299C32.8259 23.4205 33.7219 22.4877 34.6548 21.5984C37.6581 18.7394 42.4735 18.7159 45.4802 21.5212C46.1648 22.1588 46.1749 22.5414 45.5037 23.2159C41.7252 26.9977 37.9366 30.7762 34.1648 34.5648C33.1346 35.5984 31.9199 36.0715 30.4668 36.0581C27.6615 36.0346 24.8528 36.0648 22.0474 36.0413C21.4266 36.038 20.9534 36.2192 20.5239 36.6722C19.6514 37.5917 18.7387 38.4675 17.8326 39.3702C17.9635 39.5111 18.0575 39.6151 18.1581 39.7192C19.0877 40.6655 19.0877 40.8568 18.1279 41.8131C16.8964 43.0447 15.6682 44.2796 14.4333 45.5077C13.8092 46.1286 13.43 46.1353 12.8192 45.5279C8.68836 41.4004 4.5575 37.2695 0.433348 33.1387C-0.150543 32.5514 -0.143832 32.1655 0.450127 31.5715C1.77898 30.236 3.1112 28.9004 4.44676 27.5715C5.03401 26.9877 5.41992 26.9877 6.01387 27.585C6.27562 27.8467 6.50716 28.1353 6.78568 28.4474ZM16.7051 38.1084C17.591 37.2091 18.5138 36.3064 19.3998 35.3702C20.0944 34.6386 20.9199 34.3232 21.9232 34.3266C24.7487 34.3433 27.5776 34.3131 30.4031 34.3433C31.4769 34.3534 32.3293 33.9876 33.0843 33.2259C36.5004 29.7796 39.94 26.3534 43.3796 22.9273C43.5339 22.7729 43.7722 22.7058 44.0608 22.5481C43.6212 22.2561 43.44 22.1219 43.2487 22.0112C40.8527 20.6152 37.8662 20.9239 35.8628 22.8501C33.987 24.6521 32.1615 26.5078 30.3393 28.3635C29.9199 28.7897 29.4803 28.9843 28.8796 28.9776C26.8125 28.9541 24.742 28.9709 22.6749 28.9675C22.3259 28.9675 21.9736 28.9843 21.6346 28.934C21.1414 28.8601 20.8729 28.5481 20.9031 28.038C20.9333 27.5581 21.2185 27.2997 21.6917 27.2595C21.8763 27.2427 22.0608 27.2494 22.2454 27.2494C23.883 27.246 25.5239 27.2762 27.1615 27.236C28.7252 27.1991 29.8192 26.085 29.7856 24.6554C29.7521 23.2393 28.6447 22.2595 27.0675 22.2595C23.544 22.2561 20.0206 22.2662 16.5004 22.2528C15.7555 22.2494 15.1682 22.5011 14.6447 23.0313C12.6011 25.1018 10.5374 27.1487 8.48031 29.2091C8.35615 29.3366 8.2387 29.4709 8.13467 29.585C10.9837 32.4172 13.8125 35.2292 16.7051 38.1084ZM2.232 32.3668C6.02059 36.1588 9.83937 39.9809 13.6347 43.7762C14.6279 42.7829 15.6548 41.7594 16.6615 40.7561C12.8595 36.9541 9.03736 33.1319 5.24878 29.3467C4.25549 30.3434 3.232 31.3668 2.232 32.3668Z" fill="#BF6401"/>
<path id="Vector_2" d="M22.9833 0.00149142C25.6075 0.00149142 28.2283 -0.00186428 30.8524 0.00149142C32.8289 0.00484712 34.0001 1.1525 34.0034 3.12229C34.0135 7.07866 34.0102 11.0317 34.0034 14.988C34.0034 16.1625 33.4095 16.488 32.386 15.8907C31.0605 15.1189 29.7451 14.3236 28.4061 13.5753C28.1041 13.4041 27.7216 13.2968 27.3726 13.2968C23.3155 13.2766 19.2585 13.2867 15.2015 13.2833C13.1276 13.2833 12.0001 12.1726 11.9934 10.1089C11.9867 7.79342 11.9867 5.47799 11.9934 3.16256C12.0001 1.15585 13.1646 0.00820273 15.1746 0.00484704C17.7786 -0.00186436 20.3793 0.00149142 22.9833 0.00149142ZM32.2518 13.8135C32.2685 13.5283 32.2853 13.3505 32.2853 13.1726C32.2853 9.85382 32.2887 6.53839 32.2853 3.21961C32.2853 2.09209 31.9028 1.72296 30.7585 1.72296C25.5773 1.72296 20.3994 1.72296 15.2182 1.72296C14.0907 1.72296 13.7182 2.0988 13.7182 3.24645C13.7149 5.51826 13.7149 7.79342 13.7182 10.0652C13.7216 11.2095 14.0773 11.5585 15.2317 11.5585C19.4095 11.5585 23.5874 11.5518 27.7618 11.5719C28.1477 11.5753 28.5739 11.6961 28.9162 11.8807C30.0102 12.4746 31.0739 13.1256 32.2518 13.8135Z" fill="#BF6401"/>
<path id="Vector_3" d="M24.7391 6.33715C24.729 7.17943 24.0478 7.85728 23.2122 7.85057C22.3599 7.84386 21.6485 7.10896 21.6787 6.26333C21.7089 5.43447 22.4203 4.76333 23.2525 4.78346C24.0881 4.8036 24.7458 5.49152 24.7391 6.33715Z" fill="#BF6401"/>
<path id="Vector_4" d="M29.6381 6.33366C29.628 7.16587 28.9334 7.85715 28.1045 7.85379C27.2488 7.85044 26.5475 7.12561 26.571 6.2699C26.5944 5.44104 27.3025 4.76655 28.1347 4.78333C28.9669 4.80011 29.6481 5.50145 29.6381 6.33366Z" fill="#BF6401"/>
<path id="Vector_5" d="M18.3325 4.78302C19.1714 4.78302 19.8459 5.46087 19.8526 6.30315C19.8594 7.14543 19.1916 7.83671 18.3594 7.85013C17.5003 7.86355 16.8023 7.16557 16.8057 6.29644C16.8124 5.45752 17.4936 4.78302 18.3325 4.78302Z" fill="#BF6401"/>
</g>
</svg>
