<svg width="29" height="29" viewBox="0 0 29 29" fill="none" xmlns="http://www.w3.org/2000/svg">
<g id="Group">
<path id="Vector" d="M14.5028 24.8905C13.4913 24.8905 12.4778 24.9151 11.4663 24.8848C10.4946 24.8544 9.86639 24.3382 9.80756 23.4063C9.75442 22.5637 9.36347 22.0209 8.74856 21.5009C5.50705 18.7623 4.58659 14.3347 6.44269 10.5788C8.23615 6.95205 12.3184 4.93844 16.264 5.73174C20.3577 6.5535 23.3297 10.0057 23.5005 14.2341C23.6163 17.0903 22.5592 19.4968 20.4032 21.3776C19.7314 21.964 19.2531 22.5485 19.1867 23.5088C19.1241 24.4141 18.4408 24.8677 17.5375 24.8867C16.5278 24.9075 15.5144 24.8905 14.5028 24.8905ZM17.6912 23.3893C17.7216 21.9431 18.4579 21.0492 19.4315 20.1933C21.6634 18.2328 22.4453 15.7106 21.7773 12.8202C21.0428 9.6375 18.2738 7.32213 15.1139 7.11147C11.768 6.88942 8.75616 8.77018 7.52825 11.8504C6.3402 14.83 7.21131 18.2613 9.73924 20.3489C10.5572 21.0246 11.1342 21.7818 11.2917 22.856C11.3201 23.0533 11.6048 23.3646 11.7775 23.3684C13.7266 23.4025 15.6776 23.3893 17.6912 23.3893Z" fill="#D87101"/>
<path id="Vector_2" d="M14.4937 26.9698C13.6093 26.9698 12.7193 27.0381 11.8462 26.9375C11.516 26.8996 11.2294 26.4764 10.922 26.2297C11.2219 25.9734 11.5122 25.5066 11.8216 25.4933C13.5866 25.4212 15.3535 25.4534 17.1204 25.461C17.648 25.4629 18.1566 25.6622 18.0427 26.2467C17.9858 26.5352 17.4771 26.8996 17.1393 26.9375C16.2682 27.0343 15.3781 26.9698 14.4937 26.9698Z" fill="#D87101"/>
<path id="Vector_3" d="M14.5163 28.9568C14.0457 28.9568 13.5465 29.0498 13.11 28.9264C12.7931 28.8353 12.5559 28.4596 12.2845 28.211C12.5502 27.9604 12.7988 27.5239 13.0854 27.4955C14.0191 27.4025 14.9737 27.4006 15.9093 27.4898C16.2035 27.5182 16.4578 27.9471 16.7311 28.192C16.4654 28.4463 16.2358 28.8334 15.9226 28.9245C15.488 29.0517 14.9889 28.9568 14.5163 28.9568Z" fill="#D87101"/>
<path id="Vector_4" d="M15.2583 1.81624C15.1938 2.31727 15.524 3.24341 14.5523 3.27378C13.4895 3.30604 13.8045 2.34194 13.7552 1.70236C13.7324 1.42148 13.6584 1.08367 13.778 0.865416C13.9602 0.533294 14.2904 0.284676 14.558 0C14.7914 0.286574 15.0875 0.544681 15.2374 0.869212C15.3456 1.10265 15.2583 1.42528 15.2583 1.81624Z" fill="#D87101"/>
<path id="Vector_5" d="M28.4181 11.5446C28.5776 11.7135 28.978 11.947 28.9989 12.2127C29.0198 12.4783 28.7218 12.9319 28.4637 13.0268C27.8849 13.2413 27.2434 13.3608 26.6247 13.3608C26.3495 13.3608 25.8921 13.0192 25.8466 12.7725C25.8029 12.5296 26.1161 12.0551 26.3761 11.9564C26.9549 11.742 27.5983 11.6983 28.4181 11.5446Z" fill="#D87101"/>
<path id="Vector_6" d="M4.66345 21.0466C4.57805 21.1548 4.45089 21.4167 4.24023 21.5591C3.77526 21.8779 3.29511 22.2214 2.7694 22.3846C2.47334 22.4776 1.97421 22.3277 1.75785 22.1018C1.6326 21.9709 1.78253 21.3484 1.99508 21.17C2.46955 20.7752 3.04269 20.4792 3.61205 20.2192C4.16052 19.9725 4.66535 20.3255 4.66345 21.0466Z" fill="#D87101"/>
<path id="Vector_7" d="M27.382 21.7209C27.3649 22.3567 26.8487 22.6964 26.3059 22.4421C25.7404 22.1764 25.1748 21.8728 24.6909 21.4837C24.4859 21.3186 24.3663 20.8612 24.4384 20.5974C24.4954 20.3925 24.9926 20.0964 25.1425 20.1666C25.8732 20.5044 26.5583 20.9428 27.2435 21.3736C27.3478 21.4382 27.3573 21.6507 27.382 21.7209Z" fill="#D87101"/>
<path id="Vector_8" d="M2.60044 13.4559C1.7559 13.2889 1.08976 13.2225 0.474859 13.0042C0.241425 12.9226 -0.0584343 12.4235 0.00988803 12.2413C0.112372 11.9661 0.510919 11.6264 0.784208 11.6245C1.40101 11.6226 2.04438 11.7403 2.62512 11.9509C2.88892 12.0477 3.19067 12.4899 3.17739 12.7613C3.1641 13.0251 2.76935 13.2699 2.60044 13.4559Z" fill="#D87101"/>
<path id="Vector_9" d="M5.57386 3.29803C5.67634 3.34358 5.8889 3.37774 6.00277 3.5011C6.44497 3.98505 6.92132 4.4614 7.24965 5.01937C7.3806 5.24142 7.26673 5.76522 7.07125 5.97209C6.93081 6.12202 6.36526 6.10114 6.18117 5.93982C5.69342 5.51091 5.26261 4.9947 4.89822 4.45192C4.54902 3.9338 4.90961 3.30752 5.57386 3.29803Z" fill="#D87101"/>
<path id="Vector_10" d="M22.2551 6.18276C22.1507 6.11254 21.8471 6.02144 21.7787 5.83925C21.6819 5.58304 21.6459 5.18829 21.7806 4.98142C22.1184 4.45951 22.5322 3.97177 22.9896 3.55235C23.1717 3.38534 23.5703 3.34738 23.8322 3.40811C24.0068 3.44796 24.1947 3.75352 24.2383 3.96797C24.3389 4.45382 22.889 6.1448 22.2551 6.18276Z" fill="#D87101"/>
<path id="Vector_11" d="M15.9648 8.30319C16.257 8.40377 16.4108 8.44552 16.5531 8.50815C18.2327 9.24831 19.5023 10.4307 20.3659 12.0495C20.6183 12.5221 20.6714 13.0573 20.0907 13.2205C19.8022 13.3021 19.2291 13.0326 19.0601 12.7555C18.2801 11.4688 17.2553 10.5085 15.9097 9.83664C15.6459 9.70569 15.3954 9.27108 15.3935 8.97502C15.3897 8.74159 15.7807 8.50436 15.9648 8.30319Z" fill="#D87101"/>
</g>
</svg>
