<svg width="47" height="49" viewBox="0 0 47 49" fill="none" xmlns="http://www.w3.org/2000/svg">
<g id="Group">
<path id="Vector" d="M8.66055 30.1356C9.0157 29.6483 9.35433 29.128 9.75078 28.6613C11.572 26.5221 13.8805 25.2543 16.668 24.8785C18.6998 24.6059 20.649 24.9198 22.4867 25.8325C23.1599 26.167 23.8454 26.3156 24.5887 26.3115C27.1244 26.3033 29.6641 26.328 32.1998 26.2991C33.29 26.2867 34.2811 26.5015 35.1318 27.2448C35.2144 27.1746 35.2888 27.1127 35.359 27.0466C37.143 25.3245 38.9353 23.6024 40.711 21.8721C41.314 21.2857 41.9995 20.8851 42.8337 20.7447C44.7416 20.4226 46.6578 21.7936 46.951 23.7057C47.1286 24.8413 46.8271 25.8325 46.0961 26.7203C44.7499 28.3557 43.4201 30.0034 42.0862 31.6471C40.5128 33.5839 38.9394 35.5166 37.3742 37.4534C36.8539 38.0976 36.2138 38.5312 35.3961 38.6799C35.136 38.7253 34.8675 38.7336 34.6074 38.7336C30.4818 38.7377 26.3562 38.7336 22.2307 38.7377C20.872 38.7377 19.7157 39.2292 18.7659 40.2038C18.6461 40.3277 18.6048 40.435 18.642 40.6126C18.8856 41.8267 18.5759 42.8839 17.7004 43.7636C16.2303 45.242 14.7518 46.7122 13.2817 48.1865C12.8893 48.5829 12.4268 48.7357 11.8982 48.5664C11.6959 48.5003 11.5059 48.3682 11.3407 48.2278C11.1136 48.0378 10.9154 47.8107 10.7047 47.6C7.29775 44.1931 3.89076 40.7819 0.475509 37.3749C0.169913 37.0693 -0.0117937 36.7307 0.000595395 36.293C0.0129845 35.9337 0.153394 35.6322 0.405305 35.3803C0.85957 34.926 1.30971 34.4759 1.76397 34.0216C2.784 33.0016 3.80817 31.9816 4.8282 30.9574C5.57154 30.2099 6.46355 29.8424 7.51249 29.9209C7.89655 29.9498 8.26823 30.0613 8.66055 30.1356ZM17.4774 38.6304C17.5022 38.6097 17.5394 38.5849 17.5683 38.5519C18.8237 37.2841 20.3434 36.7101 22.1275 36.7183C26.2654 36.739 30.3992 36.7183 34.5372 36.7307C35.1194 36.7307 35.5448 36.5449 35.9 36.0865C36.5814 35.2069 37.2958 34.352 37.9978 33.4848C40.2031 30.7716 42.4083 28.0584 44.6136 25.3452C44.9646 24.9115 45.0679 24.416 44.9192 23.8833C44.5888 22.7146 43.1641 22.3346 42.2679 23.1936C40.3022 25.0767 38.3489 26.9764 36.3873 28.8678C36.2716 28.9793 36.2303 29.0743 36.2675 29.2436C36.412 29.9415 36.3542 30.6353 36.0651 31.2837C35.4127 32.7703 34.2398 33.5178 32.6334 33.5343C30.0193 33.555 27.4052 33.5426 24.7911 33.5385C24.6589 33.5385 24.5268 33.5261 24.3988 33.4972C23.9734 33.3981 23.6678 33.0305 23.643 32.601C23.6141 32.1426 23.866 31.7297 24.2873 31.5934C24.4607 31.5356 24.6548 31.519 24.8407 31.519C27.4754 31.5149 30.1143 31.519 32.749 31.5149C33.5047 31.5149 34.1407 30.9904 34.2935 30.2636C34.4463 29.5409 34.0953 28.8389 33.418 28.5044C33.1248 28.3598 32.8109 28.3227 32.4847 28.3227C29.8169 28.3268 27.145 28.3185 24.4772 28.3268C23.4779 28.3309 22.5363 28.1162 21.6401 27.666C20.2154 26.9475 18.7039 26.6749 17.1181 26.8566C14.6527 27.1416 12.6498 28.2731 11.0971 30.2017C10.7791 30.594 10.5065 31.0194 10.3042 31.453C12.6994 33.8523 15.0739 36.231 17.4774 38.6304ZM12.3277 46.2827C12.3525 46.262 12.3938 46.229 12.4351 46.1877C13.707 44.9157 14.979 43.6479 16.2468 42.3719C16.8828 41.7318 16.8745 40.9389 16.2344 40.2946C13.6079 37.664 10.9814 35.0375 8.35082 32.4111C7.68181 31.742 6.9013 31.7462 6.22816 32.4193C5.00164 33.6417 3.77926 34.8682 2.55687 36.0906C2.48254 36.1691 2.4082 36.2475 2.35865 36.3053C5.68304 39.638 8.99092 42.9459 12.3277 46.2827Z" fill="#BF6401"/>
<path id="Vector_2" d="M40.8729 12.0272C40.8729 13.9681 40.8688 15.9091 40.8771 17.8501C40.8771 18.325 40.778 18.7586 40.4311 19.089C40.2452 19.2665 40.0181 19.4235 39.7786 19.5267C36.8671 20.7904 33.9516 22.0417 31.036 23.3012C30.4785 23.5408 29.921 23.7803 29.3676 24.0198C28.8845 24.2304 28.4095 24.2222 27.9264 24.0157C24.4657 22.5207 21.005 21.0299 17.5443 19.5432C16.9868 19.3037 16.611 18.9238 16.4789 18.3291C16.4417 18.168 16.4417 18.0029 16.4417 17.8377C16.4417 13.9681 16.4417 10.0945 16.4376 6.22499C16.4376 5.39905 16.8093 4.8498 17.5609 4.53182C19.6092 3.66458 21.6575 2.78909 23.7058 1.9136C25.0645 1.33544 26.4273 0.761414 27.7777 0.174999C28.3187 -0.0603932 28.8308 -0.0562635 29.3759 0.174999C32.7953 1.62039 36.2229 3.05339 39.6464 4.49465C39.7497 4.53595 39.8529 4.57724 39.9479 4.6268C40.526 4.92414 40.8482 5.39492 40.8688 6.04741C40.8853 6.52233 40.8729 6.99724 40.8729 7.46802C40.8729 8.98362 40.8729 10.5075 40.8729 12.0272ZM29.5989 21.9095C32.7581 20.5509 35.8801 19.2046 38.9898 17.8624C39.0641 17.3793 39.0394 8.24028 38.9568 7.99662C35.8306 9.30986 32.7086 10.619 29.5989 11.924C29.5989 15.269 29.5989 18.5686 29.5989 21.9095ZM38.6801 6.1011C38.5562 6.03915 38.4695 5.99373 38.3827 5.95656C35.1946 4.61441 32.0024 3.27639 28.8143 1.93425C28.6532 1.86404 28.5128 1.85578 28.3435 1.92599C25.1843 3.28052 22.0209 4.6268 18.8576 5.97721C18.7874 6.00611 18.7213 6.05567 18.6222 6.11349C18.742 6.16717 18.8122 6.19608 18.8824 6.22912C22.0044 7.55888 25.1264 8.88864 28.2485 10.2267C28.4839 10.3258 28.6697 10.3258 28.9051 10.2267C32.0602 8.89277 35.2235 7.56714 38.3827 6.24151C38.4653 6.20434 38.5521 6.16304 38.6801 6.1011ZM18.2918 17.8377C19.1012 18.263 27.4597 21.8269 27.7158 21.8517C27.7158 18.5727 27.7158 15.2896 27.7158 11.9983C24.5772 10.6603 21.451 9.32638 18.2918 7.98011C18.2918 11.2921 18.2918 14.5546 18.2918 17.8377Z" fill="#BF6401"/>
<path id="Vector_3" d="M7.43467 34.4059C8.0789 34.4059 8.59511 34.9056 8.60337 35.5457C8.61163 36.1858 8.07064 36.7267 7.42641 36.7185C6.79044 36.7102 6.27836 36.1899 6.27836 35.5498C6.28248 34.9138 6.79044 34.41 7.43467 34.4059Z" fill="#BF6401"/>
<path id="Vector_4" d="M20.3261 12.9025C20.3674 12.9107 20.4789 12.9231 20.5821 12.9603C21.7054 13.4104 22.8286 13.8606 23.9478 14.3231C24.3401 14.4842 24.5342 14.8352 24.5053 15.2481C24.4805 15.6157 24.2286 15.9543 23.8611 16.041C23.6876 16.0823 23.4729 16.0989 23.3118 16.0369C22.1514 15.5868 20.9992 15.1201 19.8511 14.637C19.4382 14.4635 19.2523 14.0175 19.3556 13.5921C19.4588 13.1833 19.8305 12.8984 20.3261 12.9025Z" fill="#BF6401"/>
<path id="Vector_5" d="M20.2534 15.3974C20.3814 15.4305 20.5136 15.447 20.6333 15.4965C21.7277 15.9343 22.818 16.3762 23.9082 16.8263C24.379 17.0204 24.6061 17.4664 24.4905 17.9165C24.3542 18.4493 23.8049 18.7384 23.2681 18.5443C22.8138 18.3791 22.3678 18.185 21.9177 18.0033C21.2528 17.7348 20.5879 17.4747 19.9313 17.1938C19.3986 16.9708 19.188 16.3927 19.444 15.9095C19.6009 15.6039 19.9065 15.4181 20.2534 15.3974Z" fill="#BF6401"/>
</g>
</svg>
