<svg width="28" height="28" viewBox="0 0 28 28" fill="none" xmlns="http://www.w3.org/2000/svg">
<g id="Group">
<path id="Vector" d="M5.24642 0.005368C5.33946 0.0536804 5.43072 0.107361 5.52556 0.152095C6.20372 0.479546 6.62601 1.0074 6.65285 1.76609C6.67969 2.51225 6.33971 3.08842 5.69376 3.49102C5.54345 3.58586 5.37346 3.79879 5.37167 3.95983C5.3502 5.92811 5.35915 7.8964 5.36094 9.86468C5.36094 9.91478 5.3842 9.96668 5.40209 10.0418C6.45781 10.0418 7.50816 10.0418 8.60503 10.0418C8.61576 9.88973 8.63545 9.73585 8.63723 9.58018C8.64797 8.76602 8.76607 8.64971 9.60169 8.64792C10.8578 8.64792 12.1139 8.64792 13.447 8.64792C13.447 7.55642 13.456 6.48997 13.4327 5.42352C13.4309 5.31973 13.2359 5.19627 13.107 5.12112C12.3609 4.68094 11.9887 3.81668 12.2159 3.02221C12.4557 2.18658 13.1911 1.63368 14.0393 1.65157C14.8803 1.66946 15.605 2.26353 15.8072 3.09915C15.9879 3.84531 15.6175 4.7203 14.9035 5.09249C14.6101 5.24458 14.5331 5.41994 14.5385 5.72413C14.5546 6.67069 14.5439 7.61726 14.5439 8.60498C15.3008 8.60498 16.0362 8.60498 16.8414 8.60498C16.8414 7.52421 16.8414 6.43808 16.8414 5.35015C16.8414 4.33738 16.9094 4.27118 17.9275 4.26939C18.8759 4.26939 19.8225 4.27297 20.7708 4.2676C21.1788 4.26402 21.5402 4.36064 21.5223 4.84019C21.5062 5.28216 21.1573 5.36805 20.7726 5.36447C19.8475 5.35731 18.9206 5.36268 17.9329 5.36268C17.9329 5.94601 17.9329 6.48639 17.9329 7.02856C17.9329 7.55284 17.9329 8.07533 17.9329 8.57814C18.0206 8.61214 18.0528 8.63361 18.085 8.6354C19.3554 8.71592 19.3554 8.71592 19.3554 9.98099C19.3554 11.1101 19.3554 12.2409 19.3554 13.4541C20.438 13.4541 21.5044 13.4631 22.5691 13.4398C22.6747 13.438 22.8017 13.2483 22.8769 13.1213C23.3206 12.3716 24.1777 11.9958 24.9722 12.2195C25.8096 12.4557 26.3661 13.1875 26.3518 14.0357C26.3375 14.8766 25.7506 15.6031 24.9132 15.8107C24.1455 16.0021 23.3081 15.6103 22.8715 14.8802C22.791 14.746 22.6335 14.5689 22.5065 14.5653C21.474 14.5403 20.4398 14.551 19.3805 14.551C19.3805 15.3276 19.3805 16.0487 19.3805 16.8467C20.3235 16.8467 21.2629 16.8557 22.2023 16.8449C23.7841 16.8288 23.7429 16.802 23.7322 18.3605C23.7214 20.2018 23.7358 22.043 23.7232 23.8842C23.7214 24.2045 23.7805 24.3996 24.099 24.566C24.8362 24.9525 25.1833 25.8418 24.9686 26.6148C24.7414 27.4289 24.0328 27.9872 23.2097 27.9997C22.3651 28.0123 21.6297 27.4504 21.3953 26.6148C21.1788 25.84 21.5456 24.9954 22.2524 24.5445C22.4188 24.4389 22.6156 24.2171 22.6174 24.0471C22.6425 22.0788 22.6317 20.1105 22.6299 18.1422C22.6299 18.0921 22.6067 18.042 22.587 17.9669C21.5313 17.9669 20.4809 17.9669 19.3912 17.9669C19.3787 18.1028 19.3554 18.2406 19.3536 18.3784C19.3411 19.2695 19.2445 19.3625 18.3319 19.3625C17.0937 19.3625 15.8573 19.3625 14.5439 19.3625C14.5439 20.4558 14.5349 21.5223 14.5582 22.5887C14.56 22.6925 14.7568 22.8142 14.8856 22.8911C15.6103 23.3188 15.9915 24.1705 15.7928 24.94C15.5745 25.7774 14.8481 26.3535 14.0035 26.3589C13.1589 26.3643 12.4289 25.797 12.2016 24.9596C11.9923 24.1884 12.3519 23.3009 13.0909 22.9162C13.3862 22.7623 13.4577 22.5852 13.4524 22.2828C13.4363 21.3362 13.447 20.3896 13.447 19.4037C12.6883 19.4037 11.9529 19.4037 11.1495 19.4037C11.1495 20.5238 11.1495 21.6475 11.1495 22.7713C11.1495 23.6301 11.0385 23.7393 10.1689 23.7393C9.18478 23.7393 8.20063 23.7339 7.21649 23.7411C6.83357 23.7447 6.48107 23.6624 6.46675 23.2186C6.45065 22.739 6.81031 22.6406 7.21828 22.6424C8.14337 22.6478 9.06847 22.6442 10.024 22.6442C10.024 21.5491 10.024 20.4988 10.024 19.3625C9.80747 19.3625 9.58022 19.359 9.35297 19.3625C8.84659 19.3733 8.6265 19.1228 8.63008 18.6253C8.63723 17.2958 8.63187 15.9664 8.63187 14.5528C7.54752 14.5528 6.48107 14.5438 5.41462 14.5671C5.30905 14.5689 5.18379 14.7603 5.10864 14.8874C4.66667 15.6371 3.80599 16.0111 3.01331 15.7874C2.1759 15.5512 1.6212 14.8176 1.63551 13.9694C1.65162 13.1285 2.24031 12.4038 3.07594 12.1962C3.82031 12.0119 4.69888 12.3805 5.07285 13.0909C5.22316 13.3772 5.38957 13.4702 5.70091 13.4631C6.64748 13.4452 7.59583 13.4559 8.58713 13.4559C8.58713 12.7044 8.58713 11.969 8.58713 11.1584C7.58868 11.1584 6.5759 11.1584 5.56134 11.1584C4.25512 11.1584 4.25512 11.1584 4.25512 9.85931C4.25512 7.92682 4.26228 5.99432 4.24259 4.06361C4.2408 3.87394 4.11734 3.60196 3.96524 3.51249C3.26382 3.09915 2.91311 2.49614 2.96321 1.70704C3.01331 0.930461 3.46423 0.400814 4.18891 0.11094C4.25154 0.0858887 4.30701 0.0375763 4.36606 0C4.66309 0.00536805 4.95475 0.005368 5.24642 0.005368ZM9.75558 18.2335C12.6096 18.2335 15.4207 18.2335 18.2192 18.2335C18.2192 15.383 18.2192 12.572 18.2192 9.76806C15.3777 9.76806 12.5774 9.76806 9.75558 9.76806C9.75558 12.597 9.75558 15.3956 9.75558 18.2335ZM5.56492 1.86629C5.56671 1.4619 5.19989 1.08435 4.79729 1.11298C4.3589 1.14339 4.09766 1.40106 4.0565 1.83587C4.01892 2.23311 4.38932 2.61245 4.79192 2.6214C5.19453 2.63034 5.56313 2.27068 5.56492 1.86629ZM13.991 4.26223C14.3954 4.26581 14.7747 3.90078 14.7497 3.49818C14.7228 3.05979 14.4687 2.79496 14.0303 2.75381C13.6259 2.71444 13.252 3.07768 13.2412 3.48565C13.2287 3.88647 13.5866 4.25686 13.991 4.26223ZM4.25154 13.9891C4.24259 13.5865 3.86504 13.2322 3.46423 13.2501C3.05804 13.268 2.69838 13.6492 2.74312 14.05C2.79143 14.4866 3.05625 14.7389 3.49822 14.7586C3.90083 14.7764 4.26228 14.3917 4.25154 13.9891ZM25.2549 14.0321C25.2692 13.6259 24.9203 13.2573 24.5123 13.2501C24.1079 13.243 23.725 13.6044 23.7465 14.007C23.7698 14.4472 24.0256 14.7102 24.4604 14.7586C24.8595 14.8033 25.2406 14.4383 25.2549 14.0321ZM14.0214 25.2638C14.4276 25.2495 14.7926 24.872 14.7497 24.4711C14.7031 24.0363 14.4419 23.7787 13.9999 23.7554C13.5973 23.7339 13.2341 24.1151 13.2412 24.5195C13.2466 24.9274 13.6152 25.2781 14.0214 25.2638ZM23.2061 25.3927C22.8053 25.3801 22.417 25.7398 22.4331 26.1424C22.451 26.5826 22.7051 26.8474 23.1381 26.9011C23.5336 26.9494 23.9219 26.5862 23.9415 26.1835C23.963 25.7827 23.6087 25.4034 23.2061 25.3927Z" fill="#D87101"/>
<path id="Vector_2" d="M27.9984 5.25492C27.7318 5.79351 27.433 6.30348 26.83 6.53967C25.9103 6.90112 24.8635 6.48241 24.452 5.58058C24.0404 4.67696 24.4126 3.62124 25.3037 3.16854C26.1858 2.71762 27.2594 3.04149 27.7533 3.90933C27.841 4.06321 27.9179 4.22425 27.9984 4.37993C27.9984 4.67159 27.9984 4.96325 27.9984 5.25492ZM26.8962 4.838C26.9087 4.43718 26.5491 4.0489 26.1465 4.065C25.7063 4.08289 25.4415 4.33698 25.3878 4.77C25.3395 5.16545 25.7027 5.55374 26.1053 5.57342C26.5043 5.5931 26.8837 5.2406 26.8962 4.838Z" fill="#D87101"/>
<path id="Vector_3" d="M3.71111 23.192C3.7129 24.2137 2.85223 25.0637 1.83051 25.0511C0.830261 25.0386 2.78504e-06 24.1994 2.78504e-06 23.1974C-0.00178656 22.1756 0.85889 21.3257 1.88061 21.3382C2.88085 21.3525 3.70932 22.1917 3.71111 23.192ZM2.61066 23.2224C2.62677 22.8216 2.27069 22.4315 1.86808 22.444C1.4279 22.4584 1.16129 22.7107 1.10403 23.1437C1.05214 23.5409 1.41001 23.9292 1.8144 23.9525C2.21343 23.9757 2.59635 23.6232 2.61066 23.2224Z" fill="#D87101"/>
<path id="Vector_4" d="M5.65751 23.3192C5.46068 23.457 5.23343 23.7343 5.07418 23.7003C4.86125 23.6538 4.70021 23.3657 4.5159 23.1814C4.69126 23.006 4.85767 22.7036 5.04376 22.6929C5.24417 22.6804 5.46068 22.9398 5.67182 23.0812C5.66645 23.1617 5.66288 23.2404 5.65751 23.3192Z" fill="#D87101"/>
<path id="Vector_5" d="M23.5628 4.92213C23.3517 5.06706 23.137 5.32473 22.9294 5.31936C22.7541 5.31399 22.457 5.00802 22.4517 4.82729C22.4463 4.64836 22.729 4.32806 22.9044 4.31375C23.1101 4.29764 23.3374 4.54457 23.5575 4.67699C23.5575 4.7593 23.5593 4.84161 23.5628 4.92213Z" fill="#D87101"/>
<path id="Vector_6" d="M16.5119 14.0341C16.5119 14.6156 16.5048 15.1989 16.5137 15.7805C16.5209 16.2743 16.3044 16.5266 15.798 16.523C14.5973 16.5177 13.3967 16.5177 12.1942 16.523C11.6879 16.5248 11.4731 16.2743 11.4767 15.7805C11.4839 14.5977 11.4731 13.4149 11.4821 12.2322C11.4857 11.6739 11.6735 11.495 12.2479 11.4914C13.4128 11.486 14.5777 11.4842 15.7407 11.4914C16.3312 11.495 16.503 11.6775 16.5084 12.2859C16.5173 12.8692 16.5119 13.4507 16.5119 14.0341ZM12.5951 15.3868C13.5649 15.3868 14.481 15.3868 15.39 15.3868C15.39 14.442 15.39 13.5384 15.39 12.6169C14.447 12.6169 13.5309 12.6169 12.5951 12.6169C12.5951 13.5527 12.5951 14.4546 12.5951 15.3868Z" fill="#D87101"/>
</g>
</svg>
